<svg width="94" height="94" viewBox="0 0 94 94" fill="none" xmlns="http://www.w3.org/2000/svg">
<path d="M7.02 46.8C3.14296 46.8 -0.0538645 43.6397 0.525521 39.8062C1.09073 36.0666 2.10848 32.4006 3.56244 28.8904C5.91436 23.2124 9.36163 18.0532 13.7074 13.7074C18.0532 9.36161 23.2124 5.91435 28.8904 3.56243C32.4006 2.10847 36.0666 1.09072 39.8063 0.525517C43.6398 -0.0538662 46.8 3.14296 46.8 7.02C46.8 10.897 43.6219 13.9648 39.8336 14.7893C37.9331 15.2029 36.0688 15.7859 34.2633 16.5337C30.2887 18.18 26.6772 20.5931 23.6352 23.6352C20.5931 26.6772 18.1801 30.2887 16.5337 34.2633C15.7859 36.0688 15.2029 37.9331 14.7893 39.8336C13.9648 43.6219 10.897 46.8 7.02 46.8Z" fill="#F5BCB4"/>
</svg>
