<svg width="33" height="32" viewBox="0 0 33 32" fill="none" xmlns="http://www.w3.org/2000/svg">
<g clip-path="url(#clip0_887_2478)">
<path d="M24.4998 10.6667H25.8332C27.2477 10.6667 28.6042 11.2286 29.6044 12.2288C30.6046 13.229 31.1665 14.5855 31.1665 16C31.1665 17.4145 30.6046 18.771 29.6044 19.7712C28.6042 20.7714 27.2477 21.3333 25.8332 21.3333H24.4998M24.4998 10.6667H3.1665V22.6667C3.1665 24.0812 3.72841 25.4377 4.7286 26.4379C5.7288 27.4381 7.08535 28 8.49984 28H19.1665C20.581 28 21.9375 27.4381 22.9377 26.4379C23.9379 25.4377 24.4998 24.0812 24.4998 22.6667V10.6667ZM8.49984 1.33334V5.33334M13.8332 1.33334V5.33334M19.1665 1.33334V5.33334" stroke="#C1E1CA" stroke-width="3.5" stroke-linecap="round" stroke-linejoin="round"/>
</g>
<defs>
<clipPath id="clip0_887_2478">
<rect width="32" height="32" fill="white" transform="translate(0.5)"/>
</clipPath>
</defs>
</svg>
